<svg width="400" height="400" viewBox="0 0 400 400" fill="none" xmlns="http://www.w3.org/2000/svg">
  <rect width="400" height="400" fill="#F3F4F6"/>
  <path d="M200 100C178.12 100 156.73 107.37 139.54 120.91C122.34 134.46 110.4 153.44 105.83 174.82C101.25 196.21 104.36 218.51 114.61 237.97C124.87 257.43 141.65 272.99 162.09 282.21C182.54 291.44 205.53 293.78 227.19 288.84C248.85 283.9 267.94 272.03 281.17 255.03C294.4 238.02 300.84 217.03 299.16 195.91C297.48 174.79 287.76 154.86 272 140C261.01 129.57 247.93 121.79 233.56 117.3C219.2 112.82 204 111.77 189.21 114.25" stroke="#3B82F6" stroke-width="16" stroke-linecap="round"/>
  <path d="M260 180H140C134.48 180 130 184.48 130 190V270C130 275.52 134.48 280 140 280H260C265.52 280 270 275.52 270 270V190C270 184.48 265.52 180 260 180Z" stroke="#3B82F6" stroke-width="8"/>
  <path d="M130 240L164.5 209.5L185 230L215 200L270 255" stroke="#3B82F6" stroke-width="8"/>
  <circle cx="170" cy="200" r="10" fill="#3B82F6"/>
</svg>
